<svg id="Layer_1" data-name="Layer 1" xmlns="http://www.w3.org/2000/svg" viewBox="0 0 364.99 300.17"><defs><style>.cls-1{fill:#397ef5;}</style></defs><title>clock-icon</title><path class="cls-1" d="M182.55,68.61A81.47,81.47,0,1,1,101,150.18,81.45,81.45,0,0,1,182.55,68.61Zm.21,152.8c38.6.17,70.81-32,71-71S221.89,79,182.83,78.82s-71.41,31.79-71.59,70.4A71.58,71.58,0,0,0,182.76,221.42Z"/><path class="cls-1" d="M142.16,145.49c2.34-.06,3.75,1.52,5.21,3,4.93,4.91,10.16,9.58,14.68,14.85,3.71,4.33,6,4.63,10.17.21C185,150,198.37,137,211.51,123.8c.93-.93,1.84-1.89,2.8-2.79,2.44-2.3,5.14-3.6,7.81-.61,2.43,2.73,1.67,5.56-.71,8-1.69,1.76-3.45,3.47-5.17,5.2q-21.7,21.81-43.41,43.62c-4.82,4.82-6.24,4.8-11.15,0-7.49-7.41-14.93-14.87-22.42-22.29-1.92-1.9-2.76-4.08-1.62-6.63A4.56,4.56,0,0,1,142.16,145.49Z"/></svg>