<svg id="Layer_1" data-name="Layer 1" xmlns="http://www.w3.org/2000/svg" viewBox="0 0 364.99 300.17"><defs><style>.cls-1{fill:#347bf5;}</style></defs><title>computer-icon</title><path class="cls-1" d="M182.86,71.21q40.32,0,80.65,0c11.88,0,16.07,4.18,16.07,16q0,47.6,0,95.2c0,11.9-4.23,16.18-16,16.2-23.24,0-46.49.11-69.73-.09-4.18,0-5.48,1-5.43,5.31.15,13,0,13,12.81,13h16.37c4,0,7,1.66,7.12,5.78.16,4.49-2.92,6.34-7.15,6.34q-35.17,0-70.34,0c-4,0-7-1.73-7-5.86-.1-4.49,3-6.26,7.24-6.27,8.29,0,16.58-.13,24.86.05,3.12.07,4.08-.83,4.19-4.06.47-14.21.59-14.2-13.39-14.2q-31.23,0-62.46,0c-10.66,0-15.22-4.53-15.24-15.09q-.06-48.51,0-97c0-11,4.43-15.28,15.57-15.3Q141.93,71.17,182.86,71.21Zm-.37,12.14c-26.28,0-52.56.15-78.84-.13-5.18-.06-6.25,1.46-6.21,6.39q.35,45.79,0,91.57c0,4.17,1,5.43,5.31,5.42q79.75-.23,159.5,0c4.37,0,5.3-1.32,5.28-5.45q-.25-46.09,0-92.18c0-4.45-1-5.78-5.62-5.74C235.45,83.47,209,83.34,182.49,83.34Z"/></svg>