<svg id="Layer_1" data-name="Layer 1" xmlns="http://www.w3.org/2000/svg" viewBox="0 0 364.99 300.17"><defs><style>.cls-1{fill:#397ef5;}</style></defs><title>stack-icon</title><path class="cls-1" d="M182.83,159.15c-2.27.2-4.15-.85-6-1.89q-40.13-21.91-80.27-43.81c-2.83-1.55-5.92-3-5.72-7,.18-3.61,3-5,5.7-6.32C123.73,86.47,151,72.87,178.19,59.09a10.8,10.8,0,0,1,10.87.06C215.8,72.86,242.64,86.38,269.44,100c2.9,1.47,5.88,2.9,5.88,6.88,0,3.7-2.78,5-5.44,6.48l-81.64,44C186.54,158.22,184.88,159.29,182.83,159.15Zm73.08-52.8Q221,88.61,186.07,70.74c-2.59-1.33-4.49-.39-6.61.67q-16.67,8.4-33.34,16.8c-12,6.06-24,12.16-36.54,18.54,1.47,1,2.26,1.71,3.16,2.2,22,12,44.13,24,66.1,36.12,3.2,1.77,5.54,1,8.32-.48q32.56-17.61,65.18-35.11C253.61,108.8,255.22,108.42,255.91,106.36Z"/><path class="cls-1" d="M122.45,142.19l-14.13,7.47c14.84,8.11,28.91,15.81,43,23.5,8.67,4.73,17.36,9.4,26,14.15,2.3,1.26,4.35,2.38,7.14.87,23-12.49,46.09-24.86,69.12-37.3.51-.27.78-1,1.32-1.67l-11.86-6.54c7.61-7.32,10-7.7,18.88-3.22,2.68,1.35,5.44,2.57,8,4.07,5.93,3.42,6.07,8.32,0,11.74-10.83,6.13-21.85,11.93-32.8,17.84-16.43,8.87-32.94,17.6-49.25,26.67-4.46,2.48-8.17,2.47-12.59,0-26.5-14.61-53.1-29-79.66-43.54-2.83-1.54-6.06-2.92-6-6.82,0-4.2,3.49-5.55,6.58-7.09a36.45,36.45,0,0,0,4.59-2.33C108.34,134.82,115.46,134.66,122.45,142.19Z"/><path class="cls-1" d="M121.54,184l-13.2,6.28c4.42,2.43,8,4.43,11.63,6.39q28.83,15.7,57.66,31.41c2.32,1.27,4.19,2.22,7.05.65,22.78-12.46,45.67-24.7,68.52-37a20,20,0,0,0,2.12-1.68l-12.14-6.31c4.22-3,8.35-7.21,12.48-6.12,6.24,1.65,13,4.16,17.44,9.14,3.57,4,.33,7.43-3.74,9.62q-25.79,13.87-51.56,27.79c-10.39,5.6-20.82,11.11-31.12,16.87-3.59,2-6.62,1.94-10.22,0q-40.6-22.35-81.34-44.46c-2.7-1.47-5.49-3-5.41-6.54.09-3.83,3.07-5.35,6.12-6.66a26.72,26.72,0,0,0,5.25-2.42C108.62,175.49,114.92,178.21,121.54,184Z"/></svg>