<?xml version="1.0" encoding="utf-8"?>
<!-- Generator: Adobe Illustrator 21.1.0, SVG Export Plug-In . SVG Version: 6.00 Build 0)  -->
<svg version="1.1" id="Layer_1" xmlns="http://www.w3.org/2000/svg" xmlns:xlink="http://www.w3.org/1999/xlink" x="0px" y="0px"
	 viewBox="0 0 259.5 316.9" style="enable-background:new 0 0 259.5 316.9;" xml:space="preserve">
<style type="text/css">
	.st0{fill:#777777;}
</style>
<g>
	<path class="st0" d="M150.9,258.7c0-15.3,0-29.9,0-44.6c0-2.2,0.6-4.6-0.2-6.4c-0.7-1.8-2.7-4.2-4.2-4.3
		c-11.1-0.4-22.3-0.3-33.5-0.2c-3.8,0-4.3,2.8-4.3,6c0,14.5,0,29,0,43.5c0,1.8,0,3.6,0,6c-2.8,0-5.1,0-7.3,0c-16,0-32-0.1-48,0
		c-4.7,0-6.6-1.8-6.5-6.5c0.2-14.4-1.6-13.9,13.7-13.9c9.1,0,18.2,0,27.2,0c1.5-7.2,1.2-7.5-5.3-7.5c-9.8,0-19.7-0.1-29.5,0
		c-4.2,0-6.1-1.6-6.1-5.9c0.1-15.8-1.4-14.3,13.6-14.3c8,0,16-0.1,24,0c3,0.1,4.1-1,4.1-4s-1.3-3.7-4-3.6c-10.3,0.1-20.7,0.2-31-0.1
		c-2.2-0.1-4.3-1.7-6.4-2.6c1-2,1.7-4.3,3.1-6.1c7.7-9.5,17.6-11.9,29.8-11.6c37,0.8,74,0.3,110.9,0.2c4.1,0,7.3,0.8,10.2,3.8
		c2.8,2.9,6.2,5.1,8.9,8c1.3,1.3,2.5,4,2,5.4s-3.2,2.9-5,2.9c-10.7,0.3-21.3,0.3-32,0.1c-3.4-0.1-4.3,1.3-4.2,4.4
		c0.1,3.3,2.1,3.2,4.3,3.2c10,0,20,0,30,0c6.6,0,7.3,0.7,7.3,7c0.1,14.1,1,13.1-12.8,13.1c-7.7,0-15.3,0-23,0c-6.1,0-6.1,0-5.4,7.2
		c1.7,0.1,3.4,0.2,5.2,0.2c10,0,20,0,30,0c4.1,0,6.3,1.7,6.1,6c-0.1,3,0,6,0,9c0,3.4-1.6,5.3-5.1,5.3
		C189,258.7,170.3,258.7,150.9,258.7z"/>
	<path class="st0" d="M129.7,112.4c-22.2,19.2-43.9,38.1-65.7,56.9c-6.7,5.8-13.3,11.6-20,17.3c-4.5,3.8-7,3.6-11.1-0.7
		c-9.4-9.8-9.4-9.9,0.9-18.8c29.9-26,59.9-51.9,89.8-77.9c5.4-4.6,7-4.6,12.4,0c10.3,8.9,20.6,17.9,31,26.8c1.2,1,2.5,2,4.8,3.8
		c0-5.3,0.1-9.5,0-13.7c-0.1-4.4,1.6-6.5,6.2-6.4c4.8,0.1,9.7,0.2,14.5,0s6.5,2.1,6.4,6.7c-0.1,10.8,0.1,21.7-0.1,32.5
		c-0.1,3.5,1.1,5.8,3.8,8.1c9.2,7.7,18.2,15.6,27.2,23.5c5.1,4.4,5.1,6.6,0.6,11.5c-8.8,9.6-9,9.6-18.6,1.3
		c-25.5-22.1-51.1-44.3-76.6-66.4C133.4,115.5,131.7,114.1,129.7,112.4z"/>
	<path class="st0" d="M129.8,124.9c19.2,16.6,38.2,33.1,57.9,50.2c-38.8,0-76.6,0-115.5,0C91.7,158.2,110.6,141.6,129.8,124.9z
		 M138.7,155.2c0.1-4.7-4-9.1-8.7-9.2c-4.7-0.1-9,4-9.2,8.7c-0.1,4.7,3.9,9,8.7,9.2C134.3,164,138.6,160,138.7,155.2z"/>
	<path class="st0" d="M116.5,211c8.9,0,17.5,0,26.5,0c0,15.7,0,31.3,0,47.2c-8.7,0-17.4,0-26.5,0C116.5,242.7,116.5,227,116.5,211z
		 M130.5,238.8c-0.8-3.4-0.8-5.8-2-7.4c-0.6-0.8-4.1-0.6-4.9,0.3c-1,1.2-1.4,4.6-0.6,5.3C124.6,238.2,127.2,238.1,130.5,238.8z"/>
	<path class="st0" d="M203.6,82.9c-3.6,1-7.1,2-11.5,3.3c-0.8,3.2-3,7.1-8.1,5.7c-2.1-0.6-4.5-3.1-5-5.2c-1.2-4.9,2.4-7,6.5-8.1
		c0.5-10.8,2.9-13,13.5-13c1.3,0,2.8-1.8,4-3c4.4-4.6,10.9-5.7,16.4-2.8c5.1,2.7,8,8.6,7.1,14.2c-1.1,6.1-6,11.1-12.3,11.1
		C210.7,85.2,207.2,83.7,203.6,82.9z"/>
</g>
</svg>
