<?xml version="1.0" encoding="utf-8"?>
<!-- Generator: Adobe Illustrator 21.1.0, SVG Export Plug-In . SVG Version: 6.00 Build 0)  -->
<svg version="1.1" id="Layer_1" xmlns="http://www.w3.org/2000/svg" xmlns:xlink="http://www.w3.org/1999/xlink" x="0px" y="0px"
	 viewBox="0 0 259.5 316.9" style="enable-background:new 0 0 259.5 316.9;" xml:space="preserve">
<style type="text/css">
	.st0{fill:#777777;}
</style>
<g>
	<path class="st0" d="M111.2,186.3c14.1-20.1,27.6-39.3,41.1-58.5c5.6-8,7.1-8,12.7,0c20.4,29,40.8,58.1,61.2,87.1
		c1,1.4,1.8,2.8,3.1,4.7c-66.4,0-132.2,0-198.7,0c1.2-1.8,2.1-3.6,3.3-5.2c14.2-20.3,28.5-40.6,42.7-60.9c5-7.1,6.5-7.2,11.4-0.2
		C95.7,164.1,103.1,174.8,111.2,186.3z"/>
	<path class="st0" d="M48,133.2c-10.1,0.1-17.7-7.5-17.9-17.6c-0.1-10.2,7.9-18.5,18-18.4c9.7,0,18,8.2,18.1,17.9
		C66.4,125.1,58.3,133.1,48,133.2z"/>
</g>
</svg>
